<?xml version="1.0" encoding="UTF-8" standalone="no"?>
<!DOCTYPE svg PUBLIC "-//W3C//DTD SVG 1.1//EN"
 "http://www.w3.org/Graphics/SVG/1.1/DTD/svg11.dtd">
<!-- Generated by graphviz version 2.38.0 (20140413.2041)
 -->
<!-- Title: states Pages: 1 -->
<svg width="420pt" height="1066pt"
 viewBox="0.00 0.00 419.50 1066.00" xmlns="http://www.w3.org/2000/svg" xmlns:xlink="http://www.w3.org/1999/xlink">
<g id="graph0" class="graph" transform="scale(1 1) rotate(0) translate(4 1062)">
<title>states</title>
<polygon fill="white" stroke="none" points="-4,4 -4,-1062 415.5,-1062 415.5,4 -4,4"/>
<text text-anchor="middle" x="205.75" y="-10" font-family="Times,serif" font-size="20.00">EDGAR Index Retrieval States</text>
<g id="clust1" class="cluster"><title>cluster_recache</title>
<polygon fill="none" stroke="purple" stroke-dasharray="5,2" points="254.5,-635 254.5,-1050 403.5,-1050 403.5,-635 254.5,-635"/>
<text text-anchor="middle" x="329" y="-1030" font-family="Times,serif" font-size="20.00">function:recache</text>
</g>
<!-- start -->
<g id="node1" class="node"><title>start</title>
<ellipse fill="lightgrey" stroke="black" cx="111.5" cy="-994" rx="18" ry="18"/>
</g>
<!-- isCacheReady -->
<g id="node5" class="node"><title>isCacheReady</title>
<polygon fill="none" stroke="black" points="111.5,-939 25.1983,-921 111.5,-903 197.802,-921 111.5,-939"/>
<text text-anchor="middle" x="111.5" y="-917.3" font-family="Times,serif" font-size="14.00">isCacheReady</text>
</g>
<!-- start&#45;&gt;isCacheReady -->
<g id="edge1" class="edge"><title>start&#45;&gt;isCacheReady</title>
<path fill="none" stroke="black" d="M111.5,-975.813C111.5,-967.789 111.5,-958.047 111.5,-949.069"/>
<polygon fill="black" stroke="black" points="111.5,-939.029 116,-949.029 111.5,-944.029 111.5,-949.029 111.5,-949.029 111.5,-949.029 111.5,-944.029 107,-949.029 111.5,-939.029 111.5,-939.029"/>
</g>
<!-- end -->
<g id="node2" class="node"><title>end</title>
<ellipse fill="lightgrey" stroke="black" cx="111.5" cy="-100" rx="18" ry="18"/>
<ellipse fill="none" stroke="black" cx="111.5" cy="-100" rx="22" ry="22"/>
</g>
<!-- cacheError -->
<g id="node3" class="node"><title>cacheError</title>
<polygon fill="lightgrey" stroke="black" points="246.5,-771 170.5,-771 170.5,-735 246.5,-735 246.5,-771"/>
<text text-anchor="middle" x="208.5" y="-749.3" font-family="Times,serif" font-size="14.00">cacheError</text>
</g>
<!-- fetchError -->
<g id="node4" class="node"><title>fetchError</title>
<polygon fill="lightgrey" stroke="black" points="245.5,-195 173.5,-195 173.5,-159 245.5,-159 245.5,-195"/>
<text text-anchor="middle" x="209.5" y="-173.3" font-family="Times,serif" font-size="14.00">fetchError</text>
</g>
<!-- cacheReady -->
<g id="node9" class="node"><title>cacheReady</title>
<path fill="none" stroke="black" d="M140.5,-771C140.5,-771 82.5,-771 82.5,-771 76.5,-771 70.5,-765 70.5,-759 70.5,-759 70.5,-747 70.5,-747 70.5,-741 76.5,-735 82.5,-735 82.5,-735 140.5,-735 140.5,-735 146.5,-735 152.5,-741 152.5,-747 152.5,-747 152.5,-759 152.5,-759 152.5,-765 146.5,-771 140.5,-771"/>
<text text-anchor="middle" x="111.5" y="-749.3" font-family="Times,serif" font-size="14.00">cacheReady</text>
</g>
<!-- isCacheReady&#45;&gt;cacheReady -->
<g id="edge2" class="edge"><title>isCacheReady&#45;&gt;cacheReady</title>
<path fill="none" stroke="black" d="M111.5,-902.86C111.5,-874.157 111.5,-816.126 111.5,-781.609"/>
<polygon fill="black" stroke="black" points="111.5,-771.295 116,-781.295 111.5,-776.295 111.5,-781.295 111.5,-781.295 111.5,-781.295 111.5,-776.295 107,-781.295 111.5,-771.295 111.5,-771.295"/>
</g>
<!-- initCache -->
<g id="node11" class="node"><title>initCache</title>
<path fill="none" stroke="black" d="M195.5,-855C195.5,-855 151.5,-855 151.5,-855 145.5,-855 139.5,-849 139.5,-843 139.5,-843 139.5,-831 139.5,-831 139.5,-825 145.5,-819 151.5,-819 151.5,-819 195.5,-819 195.5,-819 201.5,-819 207.5,-825 207.5,-831 207.5,-831 207.5,-843 207.5,-843 207.5,-849 201.5,-855 195.5,-855"/>
<text text-anchor="middle" x="173.5" y="-833.3" font-family="Times,serif" font-size="14.00">initCache</text>
</g>
<!-- isCacheReady&#45;&gt;initCache -->
<g id="edge11" class="edge"><title>isCacheReady&#45;&gt;initCache</title>
<path fill="none" stroke="black" stroke-dasharray="5,2" d="M122.872,-904.96C131.673,-893.32 144.059,-876.938 154.377,-863.291"/>
<polygon fill="black" stroke="black" points="160.484,-855.215 158.042,-865.905 157.468,-859.203 154.453,-863.191 154.453,-863.191 154.453,-863.191 157.468,-859.203 150.863,-860.477 160.484,-855.215 160.484,-855.215"/>
<text text-anchor="middle" x="153.5" y="-876.2" font-family="Times,serif" font-size="11.00">No</text>
</g>
<!-- foreach:indexYear -->
<g id="node6" class="node"><title>foreach:indexYear</title>
<polygon fill="none" stroke="black" points="170,-606 57,-606 53,-602 53,-568 166,-568 170,-572 170,-606"/>
<polyline fill="none" stroke="black" points="166,-602 53,-602 "/>
<polyline fill="none" stroke="black" points="166,-602 166,-568 "/>
<polyline fill="none" stroke="black" points="166,-602 170,-606 "/>
<text text-anchor="middle" x="111.5" y="-590.8" font-family="Times,serif" font-size="14.00">foreach:indexYear</text>
<text text-anchor="middle" x="111.5" y="-575.8" font-family="Times,serif" font-size="14.00">limit_years:7</text>
</g>
<!-- recache:full&#45;index/YEAR -->
<g id="node13" class="node"><title>recache:full&#45;index/YEAR</title>
<path fill="none" stroke="black" d="M177,-531C177,-531 46,-531 46,-531 40,-531 34,-525 34,-519 34,-519 34,-507 34,-507 34,-501 40,-495 46,-495 46,-495 177,-495 177,-495 183,-495 189,-501 189,-507 189,-507 189,-519 189,-519 189,-525 183,-531 177,-531"/>
<text text-anchor="middle" x="111.5" y="-509.3" font-family="Times,serif" font-size="14.00">recache:full&#45;index/YEAR</text>
</g>
<!-- foreach:indexYear&#45;&gt;recache:full&#45;index/YEAR -->
<g id="edge5" class="edge"><title>foreach:indexYear&#45;&gt;recache:full&#45;index/YEAR</title>
<path fill="none" stroke="black" d="M111.5,-567.831C111.5,-559.894 111.5,-550.409 111.5,-541.628"/>
<polygon fill="black" stroke="black" points="111.5,-531.418 116,-541.418 111.5,-536.418 111.5,-541.418 111.5,-541.418 111.5,-541.418 111.5,-536.418 107,-541.418 111.5,-531.418 111.5,-531.418"/>
</g>
<!-- foreach:quarter -->
<g id="node7" class="node"><title>foreach:quarter</title>
<polygon fill="none" stroke="black" points="161,-447 66,-447 62,-443 62,-411 157,-411 161,-415 161,-447"/>
<polyline fill="none" stroke="black" points="157,-443 62,-443 "/>
<polyline fill="none" stroke="black" points="157,-443 157,-411 "/>
<polyline fill="none" stroke="black" points="157,-443 161,-447 "/>
<text text-anchor="middle" x="111.5" y="-425.3" font-family="Times,serif" font-size="14.00">foreach:quarter</text>
</g>
<!-- recache:full&#45;index/YEAR/QUARTER -->
<g id="node14" class="node"><title>recache:full&#45;index/YEAR/QUARTER</title>
<path fill="none" stroke="black" d="M211,-363C211,-363 12,-363 12,-363 6,-363 1.42109e-14,-357 1.42109e-14,-351 1.42109e-14,-351 1.42109e-14,-339 1.42109e-14,-339 1.42109e-14,-333 6,-327 12,-327 12,-327 211,-327 211,-327 217,-327 223,-333 223,-339 223,-339 223,-351 223,-351 223,-357 217,-363 211,-363"/>
<text text-anchor="middle" x="111.5" y="-341.3" font-family="Times,serif" font-size="14.00">recache:full&#45;index/YEAR/QUARTER</text>
</g>
<!-- foreach:quarter&#45;&gt;recache:full&#45;index/YEAR/QUARTER -->
<g id="edge7" class="edge"><title>foreach:quarter&#45;&gt;recache:full&#45;index/YEAR/QUARTER</title>
<path fill="none" stroke="black" d="M111.5,-410.61C111.5,-399.774 111.5,-385.601 111.5,-373.291"/>
<polygon fill="black" stroke="black" points="111.5,-363.084 116,-373.084 111.5,-368.084 111.5,-373.084 111.5,-373.084 111.5,-373.084 111.5,-368.084 107,-373.084 111.5,-363.084 111.5,-363.084"/>
</g>
<!-- awaitRequests -->
<g id="node8" class="node"><title>awaitRequests</title>
<polygon fill="none" stroke="black" points="35.3587,-255.438 111.5,-243 187.641,-255.438 187.57,-275.562 35.4298,-275.562 35.3587,-255.438"/>
<text text-anchor="middle" x="111.5" y="-257.3" font-family="Times,serif" font-size="14.00">awaitRequests</text>
</g>
<!-- awaitRequests&#45;&gt;fetchError -->
<g id="edge17" class="edge"><title>awaitRequests&#45;&gt;fetchError</title>
<path fill="none" stroke="black" stroke-dasharray="5,2" d="M128.57,-245.717C142.991,-233.65 163.948,-216.115 180.922,-201.912"/>
<polygon fill="black" stroke="black" points="188.889,-195.246 184.107,-205.115 185.054,-198.455 181.219,-201.663 181.219,-201.663 181.219,-201.663 185.054,-198.455 178.332,-198.212 188.889,-195.246 188.889,-195.246"/>
<text text-anchor="middle" x="185" y="-216.2" font-family="Times,serif" font-size="11.00">Timeout</text>
</g>
<!-- indexLoaded -->
<g id="node10" class="node"><title>indexLoaded</title>
<path fill="none" stroke="black" d="M143,-195C143,-195 80,-195 80,-195 74,-195 68,-189 68,-183 68,-183 68,-171 68,-171 68,-165 74,-159 80,-159 80,-159 143,-159 143,-159 149,-159 155,-165 155,-171 155,-171 155,-183 155,-183 155,-189 149,-195 143,-195"/>
<text text-anchor="middle" x="111.5" y="-173.3" font-family="Times,serif" font-size="14.00">indexLoaded</text>
</g>
<!-- awaitRequests&#45;&gt;indexLoaded -->
<g id="edge9" class="edge"><title>awaitRequests&#45;&gt;indexLoaded</title>
<path fill="none" stroke="black" d="M111.5,-242.61C111.5,-231.774 111.5,-217.601 111.5,-205.291"/>
<polygon fill="black" stroke="black" points="111.5,-195.084 116,-205.084 111.5,-200.084 111.5,-205.084 111.5,-205.084 111.5,-205.084 111.5,-200.084 107,-205.084 111.5,-195.084 111.5,-195.084"/>
</g>
<!-- recache:full&#45;index/ -->
<g id="node12" class="node"><title>recache:full&#45;index/</title>
<path fill="none" stroke="black" d="M159,-683C159,-683 64,-683 64,-683 58,-683 52,-677 52,-671 52,-671 52,-659 52,-659 52,-653 58,-647 64,-647 64,-647 159,-647 159,-647 165,-647 171,-653 171,-659 171,-659 171,-671 171,-671 171,-677 165,-683 159,-683"/>
<text text-anchor="middle" x="111.5" y="-661.3" font-family="Times,serif" font-size="14.00">recache:full&#45;index/</text>
</g>
<!-- cacheReady&#45;&gt;recache:full&#45;index/ -->
<g id="edge3" class="edge"><title>cacheReady&#45;&gt;recache:full&#45;index/</title>
<path fill="none" stroke="black" d="M111.5,-734.597C111.5,-722.746 111.5,-706.817 111.5,-693.292"/>
<polygon fill="black" stroke="black" points="111.5,-683.084 116,-693.084 111.5,-688.084 111.5,-693.084 111.5,-693.084 111.5,-693.084 111.5,-688.084 107,-693.084 111.5,-683.084 111.5,-683.084"/>
</g>
<!-- indexLoaded&#45;&gt;end -->
<g id="edge10" class="edge"><title>indexLoaded&#45;&gt;end</title>
<path fill="none" stroke="black" d="M111.5,-158.981C111.5,-151.153 111.5,-141.608 111.5,-132.539"/>
<polygon fill="black" stroke="black" points="111.5,-122.244 116,-132.244 111.5,-127.244 111.5,-132.244 111.5,-132.244 111.5,-132.244 111.5,-127.244 107,-132.244 111.5,-122.244 111.5,-122.244"/>
</g>
<!-- initCache&#45;&gt;cacheError -->
<g id="edge13" class="edge"><title>initCache&#45;&gt;cacheError</title>
<path fill="none" stroke="black" stroke-dasharray="5,2" d="M180.923,-818.61C185.641,-807.555 191.842,-793.027 197.169,-780.548"/>
<polygon fill="black" stroke="black" points="201.208,-771.084 201.421,-782.048 199.245,-775.682 197.282,-780.281 197.282,-780.281 197.282,-780.281 199.245,-775.682 193.144,-778.515 201.208,-771.084 201.208,-771.084"/>
<text text-anchor="middle" x="205.5" y="-792.2" font-family="Times,serif" font-size="11.00">Error</text>
</g>
<!-- initCache&#45;&gt;cacheReady -->
<g id="edge12" class="edge"><title>initCache&#45;&gt;cacheReady</title>
<path fill="none" stroke="black" d="M160.351,-818.61C151.662,-807.118 140.134,-791.871 130.459,-779.075"/>
<polygon fill="black" stroke="black" points="124.417,-771.084 134.038,-776.346 127.433,-775.072 130.448,-779.06 130.448,-779.06 130.448,-779.06 127.433,-775.072 126.859,-781.774 124.417,-771.084 124.417,-771.084"/>
<text text-anchor="middle" x="153.5" y="-792.2" font-family="Times,serif" font-size="11.00">Ok</text>
</g>
<!-- recache:full&#45;index/&#45;&gt;foreach:indexYear -->
<g id="edge4" class="edge"><title>recache:full&#45;index/&#45;&gt;foreach:indexYear</title>
<path fill="none" stroke="black" d="M111.5,-646.754C111.5,-637.783 111.5,-626.586 111.5,-616.38"/>
<polygon fill="black" stroke="black" points="111.5,-606.237 116,-616.237 111.5,-611.237 111.5,-616.237 111.5,-616.237 111.5,-616.237 111.5,-611.237 107,-616.237 111.5,-606.237 111.5,-606.237"/>
</g>
<!-- retryOnce -->
<g id="node15" class="node"><title>retryOnce</title>
<path fill="none" stroke="black" d="M275,-279C275,-279 228,-279 228,-279 222,-279 216,-273 216,-267 216,-267 216,-255 216,-255 216,-249 222,-243 228,-243 228,-243 275,-243 275,-243 281,-243 287,-249 287,-255 287,-255 287,-267 287,-267 287,-273 281,-279 275,-279"/>
<text text-anchor="middle" x="251.5" y="-257.3" font-family="Times,serif" font-size="14.00">retryOnce</text>
</g>
<!-- recache:full&#45;index/&#45;&gt;retryOnce -->
<g id="edge14" class="edge"><title>recache:full&#45;index/&#45;&gt;retryOnce</title>
<path fill="none" stroke="black" stroke-dasharray="5,2" d="M181.026,-647.947C231.328,-634.245 290.5,-612.846 290.5,-588 290.5,-588 290.5,-588 290.5,-344 290.5,-323.706 280.638,-303.087 270.832,-287.601"/>
<polygon fill="black" stroke="black" points="179.87,-644.633 171.104,-650.584 181.668,-651.398 179.87,-644.633"/>
<polygon fill="black" stroke="black" points="265.14,-279.118 274.449,-284.914 267.926,-283.27 270.712,-287.422 270.712,-287.422 270.712,-287.422 267.926,-283.27 266.975,-289.929 265.14,-279.118 265.14,-279.118"/>
<text text-anchor="middle" x="302.5" y="-468.2" font-family="Times,serif" font-size="11.00">Error</text>
</g>
<!-- recache:full&#45;index/YEAR&#45;&gt;foreach:quarter -->
<g id="edge6" class="edge"><title>recache:full&#45;index/YEAR&#45;&gt;foreach:quarter</title>
<path fill="none" stroke="black" d="M111.5,-494.61C111.5,-483.774 111.5,-469.601 111.5,-457.291"/>
<polygon fill="black" stroke="black" points="111.5,-447.084 116,-457.084 111.5,-452.084 111.5,-457.084 111.5,-457.084 111.5,-457.084 111.5,-452.084 107,-457.084 111.5,-447.084 111.5,-447.084"/>
</g>
<!-- recache:full&#45;index/YEAR&#45;&gt;retryOnce -->
<g id="edge15" class="edge"><title>recache:full&#45;index/YEAR&#45;&gt;retryOnce</title>
<path fill="none" stroke="black" stroke-dasharray="5,2" d="M138.06,-487.675C166.164,-460.272 209.433,-412.994 231.5,-363 241.949,-339.326 246.976,-310.129 249.372,-289.226"/>
<polygon fill="black" stroke="black" points="135.36,-485.415 130.566,-494.862 140.206,-490.467 135.36,-485.415"/>
<polygon fill="black" stroke="black" points="250.4,-279.124 253.864,-289.529 249.893,-284.099 249.387,-289.073 249.387,-289.073 249.387,-289.073 249.893,-284.099 244.91,-288.618 250.4,-279.124 250.4,-279.124"/>
<text text-anchor="middle" x="234.5" y="-384.2" font-family="Times,serif" font-size="11.00">Error</text>
</g>
<!-- recache:full&#45;index/YEAR/QUARTER&#45;&gt;awaitRequests -->
<g id="edge8" class="edge"><title>recache:full&#45;index/YEAR/QUARTER&#45;&gt;awaitRequests</title>
<path fill="none" stroke="black" d="M111.5,-326.61C111.5,-314.71 111.5,-298.785 111.5,-285.723"/>
<polygon fill="black" stroke="black" points="111.5,-275.575 116,-285.575 111.5,-280.575 111.5,-285.575 111.5,-285.575 111.5,-285.575 111.5,-280.575 107,-285.575 111.5,-275.575 111.5,-275.575"/>
</g>
<!-- recache:full&#45;index/YEAR/QUARTER&#45;&gt;retryOnce -->
<g id="edge16" class="edge"><title>recache:full&#45;index/YEAR/QUARTER&#45;&gt;retryOnce</title>
<path fill="none" stroke="black" stroke-dasharray="5,2" d="M149.616,-321.675C169.44,-310.064 193.603,-295.911 213.421,-284.303"/>
<polygon fill="black" stroke="black" points="147.709,-318.736 140.849,-326.81 151.246,-324.776 147.709,-318.736"/>
<polygon fill="black" stroke="black" points="222.19,-279.167 215.836,-288.104 217.876,-281.694 213.561,-284.221 213.561,-284.221 213.561,-284.221 217.876,-281.694 211.287,-280.338 222.19,-279.167 222.19,-279.167"/>
<text text-anchor="middle" x="202.5" y="-300.2" font-family="Times,serif" font-size="11.00">Error</text>
</g>
<!-- retryOnce&#45;&gt;fetchError -->
<g id="edge18" class="edge"><title>retryOnce&#45;&gt;fetchError</title>
<path fill="none" stroke="black" stroke-dasharray="5,2" d="M242.593,-242.61C236.875,-231.446 229.342,-216.739 222.908,-204.177"/>
<polygon fill="black" stroke="black" points="218.25,-195.084 226.814,-201.933 220.53,-199.534 222.809,-203.984 222.809,-203.984 222.809,-203.984 220.53,-199.534 218.804,-206.036 218.25,-195.084 218.25,-195.084"/>
<text text-anchor="middle" x="245.5" y="-216.2" font-family="Times,serif" font-size="11.00">Error</text>
</g>
<!-- recache -->
<g id="node16" class="node"><title>recache</title>
<ellipse fill="lightgrey" stroke="black" cx="323.5" cy="-994" rx="18" ry="18"/>
</g>
<!-- isCached -->
<g id="node18" class="node"><title>isCached</title>
<path fill="none" stroke="black" d="M311.993,-935.595C311.993,-935.595 274.178,-924.405 274.178,-924.405 268.424,-922.702 268.424,-919.298 274.178,-917.595 274.178,-917.595 311.993,-906.405 311.993,-906.405 317.747,-904.702 329.253,-904.702 335.007,-906.405 335.007,-906.405 372.822,-917.595 372.822,-917.595 378.576,-919.298 378.576,-922.702 372.822,-924.405 372.822,-924.405 335.007,-935.595 335.007,-935.595 329.253,-937.298 317.747,-937.298 311.993,-935.595"/>
<text text-anchor="middle" x="323.5" y="-917.3" font-family="Times,serif" font-size="14.00">isCached</text>
</g>
<!-- recache&#45;&gt;isCached -->
<g id="edge19" class="edge"><title>recache&#45;&gt;isCached</title>
<path fill="none" stroke="black" d="M323.5,-975.813C323.5,-967.789 323.5,-958.047 323.5,-949.069"/>
<polygon fill="black" stroke="black" points="323.5,-939.029 328,-949.029 323.5,-944.029 323.5,-949.029 323.5,-949.029 323.5,-949.029 323.5,-944.029 319,-949.029 323.5,-939.029 323.5,-939.029"/>
</g>
<!-- return -->
<g id="node17" class="node"><title>return</title>
<ellipse fill="lightgrey" stroke="black" cx="298.5" cy="-665" rx="18" ry="18"/>
<ellipse fill="none" stroke="black" cx="298.5" cy="-665" rx="22" ry="22"/>
</g>
<!-- isCached&#45;&gt;return -->
<g id="edge20" class="edge"><title>isCached&#45;&gt;return</title>
<path fill="none" stroke="black" d="M319.019,-904.118C315.529,-891.046 310.889,-871.973 308.5,-855 300.747,-799.917 298.875,-735.036 298.496,-697.403"/>
<polygon fill="black" stroke="black" points="298.424,-687.091 302.994,-697.059 298.459,-692.09 298.494,-697.09 298.494,-697.09 298.494,-697.09 298.459,-692.09 293.994,-697.122 298.424,-687.091 298.424,-687.091"/>
</g>
<!-- queueFetch -->
<g id="node19" class="node"><title>queueFetch</title>
<path fill="none" stroke="black" d="M384,-855C384,-855 329,-855 329,-855 323,-855 317,-849 317,-843 317,-843 317,-831 317,-831 317,-825 323,-819 329,-819 329,-819 384,-819 384,-819 390,-819 396,-825 396,-831 396,-831 396,-843 396,-843 396,-849 390,-855 384,-855"/>
<text text-anchor="middle" x="356.5" y="-833.3" font-family="Times,serif" font-size="14.00">queueFetch</text>
</g>
<!-- isCached&#45;&gt;queueFetch -->
<g id="edge21" class="edge"><title>isCached&#45;&gt;queueFetch</title>
<path fill="none" stroke="black" d="M329.707,-904.576C334.23,-893.338 340.471,-877.83 345.792,-864.609"/>
<polygon fill="black" stroke="black" points="349.637,-855.053 350.078,-866.01 347.771,-859.691 345.904,-864.33 345.904,-864.33 345.904,-864.33 347.771,-859.691 341.729,-862.65 349.637,-855.053 349.637,-855.053"/>
<text text-anchor="middle" x="348.5" y="-876.2" font-family="Times,serif" font-size="11.00">No</text>
</g>
<!-- fetch -->
<g id="node20" class="node"><title>fetch</title>
<path fill="none" stroke="black" d="M371.5,-771C371.5,-771 341.5,-771 341.5,-771 335.5,-771 329.5,-765 329.5,-759 329.5,-759 329.5,-747 329.5,-747 329.5,-741 335.5,-735 341.5,-735 341.5,-735 371.5,-735 371.5,-735 377.5,-735 383.5,-741 383.5,-747 383.5,-747 383.5,-759 383.5,-759 383.5,-765 377.5,-771 371.5,-771"/>
<text text-anchor="middle" x="356.5" y="-749.3" font-family="Times,serif" font-size="14.00">fetch</text>
</g>
<!-- queueFetch&#45;&gt;fetch -->
<g id="edge22" class="edge"><title>queueFetch&#45;&gt;fetch</title>
<path fill="none" stroke="black" d="M356.5,-818.61C356.5,-807.774 356.5,-793.601 356.5,-781.291"/>
<polygon fill="black" stroke="black" points="356.5,-771.084 361,-781.084 356.5,-776.084 356.5,-781.084 356.5,-781.084 356.5,-781.084 356.5,-776.084 352,-781.084 356.5,-771.084 356.5,-771.084"/>
</g>
<!-- fetch&#45;&gt;return -->
<g id="edge23" class="edge"><title>fetch&#45;&gt;return</title>
<path fill="none" stroke="black" d="M344.763,-734.597C336.563,-722.438 325.467,-705.985 316.198,-692.241"/>
<polygon fill="black" stroke="black" points="310.419,-683.673 319.741,-689.447 313.215,-687.818 316.01,-691.963 316.01,-691.963 316.01,-691.963 313.215,-687.818 312.279,-694.48 310.419,-683.673 310.419,-683.673"/>
<text text-anchor="middle" x="339.5" y="-708.2" font-family="Times,serif" font-size="11.00">Ok</text>
</g>
<!-- fail -->
<g id="node21" class="node"><title>fail</title>
<path fill="none" stroke="black" d="M380.5,-683C380.5,-683 350.5,-683 350.5,-683 344.5,-683 338.5,-677 338.5,-671 338.5,-671 338.5,-659 338.5,-659 338.5,-653 344.5,-647 350.5,-647 350.5,-647 380.5,-647 380.5,-647 386.5,-647 392.5,-653 392.5,-659 392.5,-659 392.5,-671 392.5,-671 392.5,-677 386.5,-683 380.5,-683"/>
<text text-anchor="middle" x="365.5" y="-661.3" font-family="Times,serif" font-size="14.00">fail</text>
</g>
<!-- fetch&#45;&gt;fail -->
<g id="edge24" class="edge"><title>fetch&#45;&gt;fail</title>
<path fill="none" stroke="black" stroke-dasharray="5,2" d="M358.321,-734.597C359.561,-722.746 361.228,-706.817 362.644,-693.292"/>
<polygon fill="black" stroke="black" points="363.712,-683.084 367.147,-693.498 363.192,-688.057 362.671,-693.03 362.671,-693.03 362.671,-693.03 363.192,-688.057 358.196,-692.561 363.712,-683.084 363.712,-683.084"/>
<text text-anchor="middle" x="372.5" y="-708.2" font-family="Times,serif" font-size="11.00">Error</text>
</g>
</g>
</svg>
