<?xml version="1.0" encoding="UTF-8" standalone="no"?>
<!DOCTYPE svg PUBLIC "-//W3C//DTD SVG 1.1//EN"
 "http://www.w3.org/Graphics/SVG/1.1/DTD/svg11.dtd">
<!-- Generated by graphviz version 2.36.0 (20140111.2315)
 -->
<!-- Title: states Pages: 1 -->
<svg width="554pt" height="1274pt"
 viewBox="0.00 0.00 554.00 1274.00" xmlns="http://www.w3.org/2000/svg" xmlns:xlink="http://www.w3.org/1999/xlink">
<g id="graph0" class="graph" transform="scale(1 1) rotate(0) translate(4 1270)">
<title>states</title>
<polygon fill="white" stroke="none" points="-4,4 -4,-1270 550,-1270 550,4 -4,4"/>
<text text-anchor="middle" x="273" y="-10" font-family="Times,serif" font-size="20.00">EDGAR Index Retrieval States</text>
<g id="clust1" class="cluster"><title>cluster_recache</title>
<polygon fill="none" stroke="purple" stroke-dasharray="5,2" points="350,-776 350,-1258 538,-1258 538,-776 350,-776"/>
<text text-anchor="middle" x="444" y="-1238" font-family="Times,serif" font-size="20.00">function:recache</text>
</g>
<!-- start -->
<g id="node1" class="node"><title>start</title>
<polygon fill="none" stroke="black" points="174,-1220 127.683,-1202 174,-1184 220.317,-1202 174,-1220"/>
<polyline fill="none" stroke="black" points="138.868,-1206.35 138.868,-1197.65 "/>
<polyline fill="none" stroke="black" points="162.815,-1188.35 185.185,-1188.35 "/>
<polyline fill="none" stroke="black" points="209.132,-1197.65 209.132,-1206.35 "/>
<polyline fill="none" stroke="black" points="185.185,-1215.65 162.815,-1215.65 "/>
<text text-anchor="middle" x="174" y="-1198.3" font-family="Times,serif" font-size="14.00">start</text>
</g>
<!-- isCacheReady -->
<g id="node7" class="node"><title>isCacheReady</title>
<polygon fill="none" stroke="black" points="174,-1146 65.8091,-1128 174,-1110 282.191,-1128 174,-1146"/>
<text text-anchor="middle" x="174" y="-1124.3" font-family="Times,serif" font-size="14.00">isCacheReady</text>
</g>
<!-- start&#45;&gt;isCacheReady -->
<g id="edge1" class="edge"><title>start&#45;&gt;isCacheReady</title>
<path fill="none" stroke="black" d="M174,-1183.94C174,-1175.81 174,-1165.88 174,-1156.7"/>
<polygon fill="black" stroke="black" points="177.5,-1156.44 174,-1146.44 170.5,-1156.44 177.5,-1156.44"/>
</g>
<!-- end -->
<g id="node2" class="node"><title>end</title>
<polygon fill="none" stroke="black" points="195.25,-121.5 152.75,-121.5 152.75,-78.5 195.25,-78.5 195.25,-121.5"/>
<polyline fill="none" stroke="black" points="164.75,-121.5 152.75,-109.5 "/>
<polyline fill="none" stroke="black" points="152.75,-90.5 164.75,-78.5 "/>
<polyline fill="none" stroke="black" points="183.25,-78.5 195.25,-90.5 "/>
<polyline fill="none" stroke="black" points="195.25,-109.5 183.25,-121.5 "/>
<text text-anchor="middle" x="174" y="-96.3" font-family="Times,serif" font-size="14.00">end</text>
</g>
<!-- cacheError -->
<g id="node3" class="node"><title>cacheError</title>
<polygon fill="none" stroke="black" points="341.5,-970 244.5,-970 244.5,-872 341.5,-872 341.5,-970"/>
<polyline fill="none" stroke="black" points="256.5,-970 244.5,-958 "/>
<polyline fill="none" stroke="black" points="244.5,-884 256.5,-872 "/>
<polyline fill="none" stroke="black" points="329.5,-872 341.5,-884 "/>
<polyline fill="none" stroke="black" points="341.5,-958 329.5,-970 "/>
<text text-anchor="middle" x="293" y="-917.3" font-family="Times,serif" font-size="14.00">cacheError</text>
</g>
<!-- fetchError -->
<g id="node4" class="node"><title>fetchError</title>
<polygon fill="none" stroke="black" points="370,-252 278,-252 278,-160 370,-160 370,-252"/>
<polyline fill="none" stroke="black" points="290,-252 278,-240 "/>
<polyline fill="none" stroke="black" points="278,-172 290,-160 "/>
<polyline fill="none" stroke="black" points="358,-160 370,-172 "/>
<polyline fill="none" stroke="black" points="370,-240 358,-252 "/>
<text text-anchor="middle" x="324" y="-202.3" font-family="Times,serif" font-size="14.00">fetchError</text>
</g>
<!-- cacheReady -->
<g id="node5" class="node"><title>cacheReady</title>
<polygon fill="none" stroke="black" points="225.25,-939 122.75,-939 122.75,-903 225.25,-903 225.25,-939"/>
<text text-anchor="middle" x="174" y="-917.3" font-family="Times,serif" font-size="14.00">cacheReady</text>
</g>
<!-- recache:full&#45;index/ -->
<g id="node18" class="node"><title>recache:full&#45;index/</title>
<ellipse fill="none" stroke="black" cx="174" cy="-802" rx="96.2631" ry="18"/>
<text text-anchor="middle" x="174" y="-798.3" font-family="Times,serif" font-size="14.00">recache:full&#45;index/</text>
</g>
<!-- cacheReady&#45;&gt;recache:full&#45;index/ -->
<g id="edge12" class="edge"><title>cacheReady&#45;&gt;recache:full&#45;index/</title>
<path fill="none" stroke="black" d="M174,-902.987C174,-883.924 174,-852.752 174,-830.277"/>
<polygon fill="black" stroke="black" points="177.5,-830.033 174,-820.033 170.5,-830.033 177.5,-830.033"/>
</g>
<!-- indexLoaded -->
<g id="node6" class="node"><title>indexLoaded</title>
<polygon fill="none" stroke="black" points="228,-224 120,-224 120,-188 228,-188 228,-224"/>
<text text-anchor="middle" x="174" y="-202.3" font-family="Times,serif" font-size="14.00">indexLoaded</text>
</g>
<!-- indexLoaded&#45;&gt;end -->
<g id="edge24" class="edge"><title>indexLoaded&#45;&gt;end</title>
<path fill="none" stroke="black" d="M174,-187.827C174,-172.683 174,-150.246 174,-131.975"/>
<polygon fill="black" stroke="black" points="177.5,-131.784 174,-121.784 170.5,-131.784 177.5,-131.784"/>
</g>
<!-- isCacheReady&#45;&gt;cacheReady -->
<g id="edge2" class="edge"><title>isCacheReady&#45;&gt;cacheReady</title>
<path fill="none" stroke="black" d="M174,-1109.87C174,-1074.3 174,-992.157 174,-949.236"/>
<polygon fill="black" stroke="black" points="177.5,-949.221 174,-939.221 170.5,-949.221 177.5,-949.221"/>
<text text-anchor="middle" x="186.5" y="-1036.3" font-family="Times,serif" font-size="14.00">Yes</text>
</g>
<!-- initCache -->
<g id="node11" class="node"><title>initCache</title>
<ellipse fill="none" stroke="black" cx="273" cy="-1040" rx="55.3436" ry="18"/>
<text text-anchor="middle" x="273" y="-1036.3" font-family="Times,serif" font-size="14.00">initCache</text>
</g>
<!-- isCacheReady&#45;&gt;initCache -->
<g id="edge3" class="edge"><title>isCacheReady&#45;&gt;initCache</title>
<path fill="none" stroke="black" d="M190.794,-1112.41C206.103,-1099.11 228.965,-1079.25 246.697,-1063.85"/>
<polygon fill="black" stroke="black" points="249.183,-1066.33 254.437,-1057.13 244.592,-1061.04 249.183,-1066.33"/>
<text text-anchor="middle" x="244" y="-1080.3" font-family="Times,serif" font-size="14.00">No</text>
</g>
<!-- foreach:indexYear -->
<g id="node8" class="node"><title>foreach:indexYear</title>
<polygon fill="none" stroke="black" points="285.624,-682.926 285.624,-707.074 220.236,-724.15 127.764,-724.15 62.3763,-707.074 62.3763,-682.926 127.764,-665.85 220.236,-665.85 285.624,-682.926"/>
<polygon fill="none" stroke="black" points="289.619,-679.827 289.619,-710.173 220.748,-728.159 127.252,-728.159 58.3806,-710.173 58.3806,-679.827 127.252,-661.841 220.748,-661.841 289.619,-679.827"/>
<polygon fill="none" stroke="black" points="293.615,-676.727 293.615,-713.273 221.259,-732.168 126.741,-732.168 54.3849,-713.273 54.3849,-676.727 126.741,-657.832 221.259,-657.832 293.615,-676.727"/>
<text text-anchor="middle" x="174" y="-698.8" font-family="Times,serif" font-size="14.00">foreach:indexYear</text>
<text text-anchor="middle" x="174" y="-683.8" font-family="Times,serif" font-size="14.00">limit_years:7</text>
</g>
<!-- recache:full&#45;index/YEAR -->
<g id="node19" class="node"><title>recache:full&#45;index/YEAR</title>
<ellipse fill="none" stroke="black" cx="174" cy="-602" rx="124.209" ry="18"/>
<text text-anchor="middle" x="174" y="-598.3" font-family="Times,serif" font-size="14.00">recache:full&#45;index/YEAR</text>
</g>
<!-- foreach:indexYear&#45;&gt;recache:full&#45;index/YEAR -->
<g id="edge15" class="edge"><title>foreach:indexYear&#45;&gt;recache:full&#45;index/YEAR</title>
<path fill="none" stroke="black" d="M174,-657.773C174,-648.712 174,-639.139 174,-630.574"/>
<polygon fill="black" stroke="black" points="177.5,-630.379 174,-620.379 170.5,-630.379 177.5,-630.379"/>
</g>
<!-- foreach:quarter -->
<g id="node9" class="node"><title>foreach:quarter</title>
<polygon fill="none" stroke="black" points="264.178,-498.544 264.178,-513.456 211.353,-524 136.647,-524 83.8221,-513.456 83.8221,-498.544 136.647,-488 211.353,-488 264.178,-498.544"/>
<polygon fill="none" stroke="black" points="268.153,-495.26 268.153,-516.74 211.743,-528 136.257,-528 79.8474,-516.74 79.8474,-495.26 136.257,-484 211.743,-484 268.153,-495.26"/>
<polygon fill="none" stroke="black" points="272.127,-491.975 272.127,-520.025 212.134,-532 135.866,-532 75.8726,-520.025 75.8726,-491.975 135.866,-480 212.134,-480 272.127,-491.975"/>
<text text-anchor="middle" x="174" y="-502.3" font-family="Times,serif" font-size="14.00">foreach:quarter</text>
</g>
<!-- recache:full&#45;index/YEAR/QUARTER -->
<g id="node21" class="node"><title>recache:full&#45;index/YEAR/QUARTER</title>
<ellipse fill="none" stroke="black" cx="174" cy="-410" rx="174.277" ry="18"/>
<text text-anchor="middle" x="174" y="-406.3" font-family="Times,serif" font-size="14.00">recache:full&#45;index/YEAR/QUARTER</text>
</g>
<!-- foreach:quarter&#45;&gt;recache:full&#45;index/YEAR/QUARTER -->
<g id="edge18" class="edge"><title>foreach:quarter&#45;&gt;recache:full&#45;index/YEAR/QUARTER</title>
<path fill="none" stroke="black" d="M174,-479.81C174,-467.064 174,-451.568 174,-438.511"/>
<polygon fill="black" stroke="black" points="177.5,-438.231 174,-428.231 170.5,-438.231 177.5,-438.231"/>
</g>
<!-- awaitRequests -->
<g id="node10" class="node"><title>awaitRequests</title>
<polygon fill="none" stroke="black" points="75.9828,-316.438 174,-304 272.017,-316.438 271.926,-336.562 76.0742,-336.562 75.9828,-316.438"/>
<text text-anchor="middle" x="174" y="-318.3" font-family="Times,serif" font-size="14.00">awaitRequests</text>
</g>
<!-- awaitRequests&#45;&gt;fetchError -->
<g id="edge22" class="edge"><title>awaitRequests&#45;&gt;fetchError</title>
<path fill="none" stroke="black" stroke-dasharray="5,2" d="M193.303,-306.33C212.521,-291.724 242.916,-268.624 269.559,-248.375"/>
<polygon fill="black" stroke="black" points="271.847,-251.032 277.691,-242.195 267.612,-245.459 271.847,-251.032"/>
<text text-anchor="middle" x="270.5" y="-274.3" font-family="Times,serif" font-size="14.00">Timeout</text>
</g>
<!-- awaitRequests&#45;&gt;indexLoaded -->
<g id="edge21" class="edge"><title>awaitRequests&#45;&gt;indexLoaded</title>
<path fill="none" stroke="black" d="M174,-303.686C174,-285.249 174,-255.816 174,-234.262"/>
<polygon fill="black" stroke="black" points="177.5,-234.104 174,-224.104 170.5,-234.104 177.5,-234.104"/>
<text text-anchor="middle" x="184.5" y="-274.3" font-family="Times,serif" font-size="14.00">Ok</text>
</g>
<!-- initCache&#45;&gt;cacheError -->
<g id="edge5" class="edge"><title>initCache&#45;&gt;cacheError</title>
<path fill="none" stroke="black" stroke-dasharray="5,2" d="M275.908,-1021.99C277.819,-1010.81 280.441,-995.468 283.058,-980.158"/>
<polygon fill="black" stroke="black" points="286.535,-980.592 284.77,-970.146 279.635,-979.413 286.535,-980.592"/>
<text text-anchor="middle" x="302" y="-992.3" font-family="Times,serif" font-size="14.00">Error</text>
</g>
<!-- initCache&#45;&gt;cacheReady -->
<g id="edge4" class="edge"><title>initCache&#45;&gt;cacheReady</title>
<path fill="none" stroke="black" d="M259.026,-1022.48C242.411,-1002.85 214.511,-969.877 195.226,-947.085"/>
<polygon fill="black" stroke="black" points="197.678,-944.565 188.547,-939.192 192.335,-949.087 197.678,-944.565"/>
<text text-anchor="middle" x="251.5" y="-992.3" font-family="Times,serif" font-size="14.00">Ok</text>
</g>
<!-- recache -->
<g id="node12" class="node"><title>recache</title>
<polygon fill="none" stroke="black" points="481,-1220 407,-1220 407,-1184 481,-1184 481,-1220"/>
<text text-anchor="middle" x="444" y="-1198.3" font-family="Times,serif" font-size="14.00">recache</text>
</g>
<!-- isCached -->
<g id="node13" class="node"><title>isCached</title>
<polygon fill="none" stroke="black" points="444,-1146 368.064,-1128 444,-1110 519.936,-1128 444,-1146"/>
<text text-anchor="middle" x="444" y="-1124.3" font-family="Times,serif" font-size="14.00">isCached</text>
</g>
<!-- recache&#45;&gt;isCached -->
<g id="edge6" class="edge"><title>recache&#45;&gt;isCached</title>
<path fill="none" stroke="black" d="M444,-1183.94C444,-1175.81 444,-1165.88 444,-1156.7"/>
<polygon fill="black" stroke="black" points="447.5,-1156.44 444,-1146.44 440.5,-1156.44 447.5,-1156.44"/>
</g>
<!-- return -->
<g id="node14" class="node"><title>return</title>
<ellipse fill="none" stroke="black" cx="398" cy="-802" rx="39.9464" ry="18"/>
<text text-anchor="middle" x="398" y="-798.3" font-family="Times,serif" font-size="14.00">return</text>
</g>
<!-- isCached&#45;&gt;return -->
<g id="edge7" class="edge"><title>isCached&#45;&gt;return</title>
<path fill="none" stroke="black" d="M428.473,-1113.47C415.11,-1100.71 396.789,-1080.27 389,-1058 361.329,-978.891 379.473,-877.438 390.827,-829.873"/>
<polygon fill="black" stroke="black" points="394.256,-830.587 393.264,-820.039 387.462,-828.903 394.256,-830.587"/>
<text text-anchor="middle" x="389.5" y="-992.3" font-family="Times,serif" font-size="14.00">Yes</text>
</g>
<!-- queueFetch -->
<g id="node15" class="node"><title>queueFetch</title>
<ellipse fill="none" stroke="black" cx="464" cy="-1040" rx="65.4659" ry="18"/>
<text text-anchor="middle" x="464" y="-1036.3" font-family="Times,serif" font-size="14.00">queueFetch</text>
</g>
<!-- isCached&#45;&gt;queueFetch -->
<g id="edge8" class="edge"><title>isCached&#45;&gt;queueFetch</title>
<path fill="none" stroke="black" d="M447.762,-1110.82C450.557,-1098.8 454.435,-1082.13 457.7,-1068.09"/>
<polygon fill="black" stroke="black" points="461.194,-1068.52 460.05,-1057.99 454.376,-1066.93 461.194,-1068.52"/>
<text text-anchor="middle" x="466" y="-1080.3" font-family="Times,serif" font-size="14.00">No</text>
</g>
<!-- fetch -->
<g id="node16" class="node"><title>fetch</title>
<ellipse fill="none" stroke="black" cx="464" cy="-921" rx="34.1708" ry="18"/>
<text text-anchor="middle" x="464" y="-917.3" font-family="Times,serif" font-size="14.00">fetch</text>
</g>
<!-- queueFetch&#45;&gt;fetch -->
<g id="edge9" class="edge"><title>queueFetch&#45;&gt;fetch</title>
<path fill="none" stroke="black" d="M464,-1021.99C464,-1002.92 464,-971.752 464,-949.277"/>
<polygon fill="black" stroke="black" points="467.5,-949.033 464,-939.033 460.5,-949.033 467.5,-949.033"/>
</g>
<!-- fetch&#45;&gt;return -->
<g id="edge10" class="edge"><title>fetch&#45;&gt;return</title>
<path fill="none" stroke="black" d="M454.684,-903.485C443.691,-883.997 425.287,-851.372 412.441,-828.601"/>
<polygon fill="black" stroke="black" points="415.444,-826.8 407.483,-819.81 409.347,-830.239 415.444,-826.8"/>
<text text-anchor="middle" x="436.5" y="-842.3" font-family="Times,serif" font-size="14.00">Ok</text>
</g>
<!-- fail -->
<g id="node17" class="node"><title>fail</title>
<ellipse fill="none" stroke="black" cx="483" cy="-802" rx="27" ry="18"/>
<text text-anchor="middle" x="483" y="-798.3" font-family="Times,serif" font-size="14.00">fail</text>
</g>
<!-- fetch&#45;&gt;fail -->
<g id="edge11" class="edge"><title>fetch&#45;&gt;fail</title>
<path fill="none" stroke="black" d="M466.763,-902.987C469.873,-883.838 474.967,-852.468 478.62,-829.971"/>
<polygon fill="black" stroke="black" points="482.086,-830.465 480.234,-820.033 475.176,-829.343 482.086,-830.465"/>
<text text-anchor="middle" x="496" y="-842.3" font-family="Times,serif" font-size="14.00">Error</text>
</g>
<!-- recache:full&#45;index/&#45;&gt;foreach:indexYear -->
<g id="edge13" class="edge"><title>recache:full&#45;index/&#45;&gt;foreach:indexYear</title>
<path fill="none" stroke="black" d="M174,-783.661C174,-772.303 174,-756.881 174,-742.138"/>
<polygon fill="black" stroke="black" points="177.5,-742.098 174,-732.098 170.5,-742.098 177.5,-742.098"/>
<text text-anchor="middle" x="184.5" y="-754.3" font-family="Times,serif" font-size="14.00">Ok</text>
</g>
<!-- retryOnce -->
<g id="node20" class="node"><title>retryOnce</title>
<ellipse fill="none" stroke="black" cx="376" cy="-322" rx="57.2688" ry="18"/>
<text text-anchor="middle" x="376" y="-318.3" font-family="Times,serif" font-size="14.00">retryOnce</text>
</g>
<!-- recache:full&#45;index/&#45;&gt;retryOnce -->
<g id="edge14" class="edge"><title>recache:full&#45;index/&#45;&gt;retryOnce</title>
<path fill="none" stroke="black" d="M246.897,-786.04C322.88,-768.295 431,-736.015 431,-696 431,-696 431,-696 431,-409 431,-385.088 415.723,-362.493 401.271,-346.469"/>
<polygon fill="black" stroke="black" points="245.833,-782.693 236.869,-788.341 247.399,-789.515 245.833,-782.693"/>
<polygon fill="black" stroke="black" points="403.742,-343.987 394.314,-339.153 398.669,-348.811 403.742,-343.987"/>
<text text-anchor="middle" x="451" y="-554.3" font-family="Times,serif" font-size="14.00">Error</text>
</g>
<!-- recache:full&#45;index/YEAR&#45;&gt;foreach:quarter -->
<g id="edge16" class="edge"><title>recache:full&#45;index/YEAR&#45;&gt;foreach:quarter</title>
<path fill="none" stroke="black" d="M174,-583.759C174,-572.271 174,-556.753 174,-542.676"/>
<polygon fill="black" stroke="black" points="177.5,-542.283 174,-532.283 170.5,-542.283 177.5,-542.283"/>
<text text-anchor="middle" x="184.5" y="-554.3" font-family="Times,serif" font-size="14.00">Ok</text>
</g>
<!-- recache:full&#45;index/YEAR&#45;&gt;retryOnce -->
<g id="edge17" class="edge"><title>recache:full&#45;index/YEAR&#45;&gt;retryOnce</title>
<path fill="none" stroke="black" d="M214.877,-579.436C235.956,-567.178 261.303,-550.58 281,-532 322.644,-492.717 334.44,-480.616 357,-428 367.741,-402.948 372.412,-372.006 374.442,-350.222"/>
<polygon fill="black" stroke="black" points="213.09,-576.426 206.133,-584.417 216.554,-582.508 213.09,-576.426"/>
<polygon fill="black" stroke="black" points="377.948,-350.285 375.261,-340.037 370.97,-349.724 377.948,-350.285"/>
<text text-anchor="middle" x="369" y="-450.3" font-family="Times,serif" font-size="14.00">Error</text>
</g>
<!-- retryOnce&#45;&gt;fetchError -->
<g id="edge23" class="edge"><title>retryOnce&#45;&gt;fetchError</title>
<path fill="none" stroke="black" stroke-dasharray="5,2" d="M368.102,-303.686C362.926,-292.338 355.849,-276.824 348.88,-261.545"/>
<polygon fill="black" stroke="black" points="351.907,-259.748 344.573,-252.102 345.539,-262.653 351.907,-259.748"/>
<text text-anchor="middle" x="380" y="-274.3" font-family="Times,serif" font-size="14.00">Error</text>
</g>
<!-- recache:full&#45;index/YEAR/QUARTER&#45;&gt;awaitRequests -->
<g id="edge19" class="edge"><title>recache:full&#45;index/YEAR/QUARTER&#45;&gt;awaitRequests</title>
<path fill="none" stroke="black" d="M174,-391.597C174,-378.69 174,-360.946 174,-346.738"/>
<polygon fill="black" stroke="black" points="177.5,-346.701 174,-336.701 170.5,-346.701 177.5,-346.701"/>
</g>
<!-- recache:full&#45;index/YEAR/QUARTER&#45;&gt;retryOnce -->
<g id="edge20" class="edge"><title>recache:full&#45;index/YEAR/QUARTER&#45;&gt;retryOnce</title>
<path fill="none" stroke="black" d="M222.619,-388.301C256.602,-373.833 301.525,-354.707 333.962,-340.897"/>
<polygon fill="black" stroke="black" points="220.777,-385.281 212.948,-392.418 223.52,-391.721 220.777,-385.281"/>
<polygon fill="black" stroke="black" points="335.35,-344.11 343.18,-336.973 332.608,-337.67 335.35,-344.11"/>
<text text-anchor="middle" x="314" y="-362.3" font-family="Times,serif" font-size="14.00">Error</text>
</g>
</g>
</svg>
