<?xml version="1.0" encoding="UTF-8" standalone="no"?>
<!DOCTYPE svg PUBLIC "-//W3C//DTD SVG 1.1//EN"
 "http://www.w3.org/Graphics/SVG/1.1/DTD/svg11.dtd">
<!-- Generated by graphviz version 2.36.0 (20140111.2315)
 -->
<!-- Title: states Pages: 1 -->
<svg width="617pt" height="1174pt"
 viewBox="0.00 0.00 617.00 1174.00" xmlns="http://www.w3.org/2000/svg" xmlns:xlink="http://www.w3.org/1999/xlink">
<g id="graph0" class="graph" transform="scale(1 1) rotate(0) translate(4 1170)">
<title>states</title>
<polygon fill="white" stroke="none" points="-4,4 -4,-1170 613,-1170 613,4 -4,4"/>
<text text-anchor="middle" x="304.5" y="-10" font-family="Times,serif" font-size="20.00">Item Retrieval States</text>
<g id="clust1" class="cluster"><title>cluster_recache</title>
<polygon fill="none" stroke="purple" stroke-dasharray="5,2" points="8,-258 8,-702 196,-702 196,-258 8,-258"/>
<text text-anchor="middle" x="102" y="-682" font-family="Times,serif" font-size="20.00">function:recache</text>
</g>
<!-- start -->
<g id="node1" class="node"><title>start</title>
<polygon fill="none" stroke="black" points="378,-1166 331.683,-1148 378,-1130 424.317,-1148 378,-1166"/>
<polyline fill="none" stroke="black" points="342.868,-1152.35 342.868,-1143.65 "/>
<polyline fill="none" stroke="black" points="366.815,-1134.35 389.185,-1134.35 "/>
<polyline fill="none" stroke="black" points="413.132,-1143.65 413.132,-1152.35 "/>
<polyline fill="none" stroke="black" points="389.185,-1161.65 366.815,-1161.65 "/>
<text text-anchor="middle" x="378" y="-1144.3" font-family="Times,serif" font-size="14.00">start</text>
</g>
<!-- isCacheReady -->
<g id="node7" class="node"><title>isCacheReady</title>
<polygon fill="none" stroke="black" points="378,-1092 269.809,-1074 378,-1056 486.191,-1074 378,-1092"/>
<text text-anchor="middle" x="378" y="-1070.3" font-family="Times,serif" font-size="14.00">isCacheReady</text>
</g>
<!-- start&#45;&gt;isCacheReady -->
<g id="edge1" class="edge"><title>start&#45;&gt;isCacheReady</title>
<path fill="none" stroke="black" d="M378,-1129.94C378,-1121.81 378,-1111.88 378,-1102.7"/>
<polygon fill="black" stroke="black" points="381.5,-1102.44 378,-1092.44 374.5,-1102.44 381.5,-1102.44"/>
</g>
<!-- end -->
<g id="node2" class="node"><title>end</title>
<polygon fill="none" stroke="black" points="399.25,-121.5 356.75,-121.5 356.75,-78.5 399.25,-78.5 399.25,-121.5"/>
<polyline fill="none" stroke="black" points="368.75,-121.5 356.75,-109.5 "/>
<polyline fill="none" stroke="black" points="356.75,-90.5 368.75,-78.5 "/>
<polyline fill="none" stroke="black" points="387.25,-78.5 399.25,-90.5 "/>
<polyline fill="none" stroke="black" points="399.25,-109.5 387.25,-121.5 "/>
<text text-anchor="middle" x="378" y="-96.3" font-family="Times,serif" font-size="14.00">end</text>
</g>
<!-- error -->
<g id="node3" class="node"><title>error</title>
<polygon fill="none" stroke="black" points="534.25,-213.5 481.75,-213.5 481.75,-160.5 534.25,-160.5 534.25,-213.5"/>
<polyline fill="none" stroke="black" points="493.75,-213.5 481.75,-201.5 "/>
<polyline fill="none" stroke="black" points="481.75,-172.5 493.75,-160.5 "/>
<polyline fill="none" stroke="black" points="522.25,-160.5 534.25,-172.5 "/>
<polyline fill="none" stroke="black" points="534.25,-201.5 522.25,-213.5 "/>
<text text-anchor="middle" x="508" y="-183.3" font-family="Times,serif" font-size="14.00">error</text>
</g>
<!-- cacheError -->
<g id="node4" class="node"><title>cacheError</title>
<polygon fill="none" stroke="black" points="545.5,-916 448.5,-916 448.5,-818 545.5,-818 545.5,-916"/>
<polyline fill="none" stroke="black" points="460.5,-916 448.5,-904 "/>
<polyline fill="none" stroke="black" points="448.5,-830 460.5,-818 "/>
<polyline fill="none" stroke="black" points="533.5,-818 545.5,-830 "/>
<polyline fill="none" stroke="black" points="545.5,-904 533.5,-916 "/>
<text text-anchor="middle" x="497" y="-863.3" font-family="Times,serif" font-size="14.00">cacheError</text>
</g>
<!-- cacheReady -->
<g id="node5" class="node"><title>cacheReady</title>
<polygon fill="none" stroke="black" points="429.25,-885 326.75,-885 326.75,-849 429.25,-849 429.25,-885"/>
<text text-anchor="middle" x="378" y="-863.3" font-family="Times,serif" font-size="14.00">cacheReady</text>
</g>
<!-- recache:full&#45;index/ -->
<g id="node18" class="node"><title>recache:full&#45;index/</title>
<ellipse fill="none" stroke="black" cx="378" cy="-762" rx="96.2631" ry="18"/>
<text text-anchor="middle" x="378" y="-758.3" font-family="Times,serif" font-size="14.00">recache:full&#45;index/</text>
</g>
<!-- cacheReady&#45;&gt;recache:full&#45;index/ -->
<g id="edge12" class="edge"><title>cacheReady&#45;&gt;recache:full&#45;index/</title>
<path fill="none" stroke="black" d="M378,-848.992C378,-833.038 378,-808.913 378,-790.272"/>
<polygon fill="black" stroke="black" points="381.5,-790.034 378,-780.034 374.5,-790.034 381.5,-790.034"/>
</g>
<!-- indexLoaded -->
<g id="node6" class="node"><title>indexLoaded</title>
<polygon fill="none" stroke="black" points="432,-205 324,-205 324,-169 432,-169 432,-205"/>
<text text-anchor="middle" x="378" y="-183.3" font-family="Times,serif" font-size="14.00">indexLoaded</text>
</g>
<!-- indexLoaded&#45;&gt;end -->
<g id="edge27" class="edge"><title>indexLoaded&#45;&gt;end</title>
<path fill="none" stroke="black" d="M378,-168.799C378,-158.187 378,-144.267 378,-131.803"/>
<polygon fill="black" stroke="black" points="381.5,-131.78 378,-121.78 374.5,-131.78 381.5,-131.78"/>
</g>
<!-- isCacheReady&#45;&gt;cacheReady -->
<g id="edge2" class="edge"><title>isCacheReady&#45;&gt;cacheReady</title>
<path fill="none" stroke="black" d="M378,-1055.87C378,-1020.3 378,-938.157 378,-895.236"/>
<polygon fill="black" stroke="black" points="381.5,-895.221 378,-885.221 374.5,-895.221 381.5,-895.221"/>
<text text-anchor="middle" x="390.5" y="-982.3" font-family="Times,serif" font-size="14.00">Yes</text>
</g>
<!-- initCache -->
<g id="node11" class="node"><title>initCache</title>
<ellipse fill="none" stroke="black" cx="477" cy="-986" rx="55.3436" ry="18"/>
<text text-anchor="middle" x="477" y="-982.3" font-family="Times,serif" font-size="14.00">initCache</text>
</g>
<!-- isCacheReady&#45;&gt;initCache -->
<g id="edge3" class="edge"><title>isCacheReady&#45;&gt;initCache</title>
<path fill="none" stroke="black" d="M394.794,-1058.41C410.103,-1045.11 432.965,-1025.25 450.697,-1009.85"/>
<polygon fill="black" stroke="black" points="453.183,-1012.33 458.437,-1003.13 448.592,-1007.04 453.183,-1012.33"/>
<text text-anchor="middle" x="447" y="-1026.3" font-family="Times,serif" font-size="14.00">No</text>
</g>
<!-- foreach:indexYear -->
<g id="node8" class="node"><title>foreach:indexYear</title>
<polygon fill="none" stroke="black" points="480.575,-638.544 480.575,-653.456 420.488,-664 335.512,-664 275.425,-653.456 275.425,-638.544 335.512,-628 420.488,-628 480.575,-638.544"/>
<polygon fill="none" stroke="black" points="484.57,-635.184 484.57,-656.816 420.835,-668 335.165,-668 271.43,-656.816 271.43,-635.184 335.165,-624 420.835,-624 484.57,-635.184"/>
<polygon fill="none" stroke="black" points="488.565,-631.824 488.565,-660.176 421.183,-672 334.817,-672 267.435,-660.176 267.435,-631.824 334.817,-620 421.183,-620 488.565,-631.824"/>
<text text-anchor="middle" x="378" y="-642.3" font-family="Times,serif" font-size="14.00">foreach:indexYear</text>
</g>
<!-- recache:full&#45;index/YEAR -->
<g id="node19" class="node"><title>recache:full&#45;index/YEAR</title>
<ellipse fill="none" stroke="black" cx="378" cy="-564" rx="124.209" ry="18"/>
<text text-anchor="middle" x="378" y="-560.3" font-family="Times,serif" font-size="14.00">recache:full&#45;index/YEAR</text>
</g>
<!-- foreach:indexYear&#45;&gt;recache:full&#45;index/YEAR -->
<g id="edge16" class="edge"><title>foreach:indexYear&#45;&gt;recache:full&#45;index/YEAR</title>
<path fill="none" stroke="black" d="M378,-619.688C378,-610.966 378,-601.162 378,-592.289"/>
<polygon fill="black" stroke="black" points="381.5,-592.064 378,-582.064 374.5,-592.064 381.5,-592.064"/>
</g>
<!-- foreach:quarter -->
<g id="node9" class="node"><title>foreach:quarter</title>
<polygon fill="none" stroke="black" points="468.178,-460.544 468.178,-475.456 415.353,-486 340.647,-486 287.822,-475.456 287.822,-460.544 340.647,-450 415.353,-450 468.178,-460.544"/>
<polygon fill="none" stroke="black" points="472.153,-457.26 472.153,-478.74 415.743,-490 340.257,-490 283.847,-478.74 283.847,-457.26 340.257,-446 415.743,-446 472.153,-457.26"/>
<polygon fill="none" stroke="black" points="476.127,-453.975 476.127,-482.025 416.134,-494 339.866,-494 279.873,-482.025 279.873,-453.975 339.866,-442 416.134,-442 476.127,-453.975"/>
<text text-anchor="middle" x="378" y="-464.3" font-family="Times,serif" font-size="14.00">foreach:quarter</text>
</g>
<!-- recache:full&#45;index/YEAR/QUARTER -->
<g id="node21" class="node"><title>recache:full&#45;index/YEAR/QUARTER</title>
<ellipse fill="none" stroke="black" cx="378" cy="-372" rx="174.277" ry="18"/>
<text text-anchor="middle" x="378" y="-368.3" font-family="Times,serif" font-size="14.00">recache:full&#45;index/YEAR/QUARTER</text>
</g>
<!-- foreach:quarter&#45;&gt;recache:full&#45;index/YEAR/QUARTER -->
<g id="edge20" class="edge"><title>foreach:quarter&#45;&gt;recache:full&#45;index/YEAR/QUARTER</title>
<path fill="none" stroke="black" d="M378,-441.81C378,-429.064 378,-413.568 378,-400.511"/>
<polygon fill="black" stroke="black" points="381.5,-400.231 378,-390.231 374.5,-400.231 381.5,-400.231"/>
</g>
<!-- awaitRequests -->
<g id="node10" class="node"><title>awaitRequests</title>
<polygon fill="none" stroke="black" points="279.983,-278.438 378,-266 476.017,-278.438 475.926,-298.562 280.074,-298.562 279.983,-278.438"/>
<text text-anchor="middle" x="378" y="-280.3" font-family="Times,serif" font-size="14.00">awaitRequests</text>
</g>
<!-- awaitRequests&#45;&gt;error -->
<g id="edge25" class="edge"><title>awaitRequests&#45;&gt;error</title>
<path fill="none" stroke="black" stroke-dasharray="5,2" d="M398.028,-268.364C418.033,-253.745 449.186,-230.98 473.234,-213.406"/>
<polygon fill="black" stroke="black" points="475.406,-216.154 481.414,-207.428 471.275,-210.502 475.406,-216.154"/>
<text text-anchor="middle" x="475.5" y="-236.3" font-family="Times,serif" font-size="14.00">Timeout</text>
</g>
<!-- awaitRequests&#45;&gt;indexLoaded -->
<g id="edge24" class="edge"><title>awaitRequests&#45;&gt;indexLoaded</title>
<path fill="none" stroke="black" d="M378,-265.576C378,-251.648 378,-231.861 378,-215.757"/>
<polygon fill="black" stroke="black" points="381.5,-215.314 378,-205.314 374.5,-215.314 381.5,-215.314"/>
<text text-anchor="middle" x="388.5" y="-236.3" font-family="Times,serif" font-size="14.00">Ok</text>
</g>
<!-- initCache&#45;&gt;cacheError -->
<g id="edge5" class="edge"><title>initCache&#45;&gt;cacheError</title>
<path fill="none" stroke="black" stroke-dasharray="5,2" d="M479.908,-967.987C481.819,-956.809 484.441,-941.468 487.058,-926.158"/>
<polygon fill="black" stroke="black" points="490.535,-926.592 488.77,-916.146 483.635,-925.413 490.535,-926.592"/>
<text text-anchor="middle" x="505" y="-938.3" font-family="Times,serif" font-size="14.00">Error</text>
</g>
<!-- initCache&#45;&gt;cacheReady -->
<g id="edge4" class="edge"><title>initCache&#45;&gt;cacheReady</title>
<path fill="none" stroke="black" d="M463.026,-968.485C446.411,-948.85 418.511,-915.877 399.226,-893.085"/>
<polygon fill="black" stroke="black" points="401.678,-890.565 392.547,-885.192 396.335,-895.087 401.678,-890.565"/>
<text text-anchor="middle" x="454.5" y="-938.3" font-family="Times,serif" font-size="14.00">Ok</text>
</g>
<!-- recache -->
<g id="node12" class="node"><title>recache</title>
<polygon fill="none" stroke="black" points="139,-664 65,-664 65,-628 139,-628 139,-664"/>
<text text-anchor="middle" x="102" y="-642.3" font-family="Times,serif" font-size="14.00">recache</text>
</g>
<!-- isCached -->
<g id="node13" class="node"><title>isCached</title>
<polygon fill="none" stroke="black" points="102,-582 26.0639,-564 102,-546 177.936,-564 102,-582"/>
<text text-anchor="middle" x="102" y="-560.3" font-family="Times,serif" font-size="14.00">isCached</text>
</g>
<!-- recache&#45;&gt;isCached -->
<g id="edge6" class="edge"><title>recache&#45;&gt;isCached</title>
<path fill="none" stroke="black" d="M102,-627.641C102,-617.297 102,-603.941 102,-592.221"/>
<polygon fill="black" stroke="black" points="105.5,-592.05 102,-582.05 98.5001,-592.05 105.5,-592.05"/>
</g>
<!-- return -->
<g id="node14" class="node"><title>return</title>
<ellipse fill="none" stroke="black" cx="56" cy="-284" rx="39.9464" ry="18"/>
<text text-anchor="middle" x="56" y="-280.3" font-family="Times,serif" font-size="14.00">return</text>
</g>
<!-- isCached&#45;&gt;return -->
<g id="edge7" class="edge"><title>isCached&#45;&gt;return</title>
<path fill="none" stroke="black" d="M86.4734,-549.473C73.1103,-536.715 54.7892,-516.269 47,-494 25.2049,-431.69 38.8953,-352.505 48.669,-311.817"/>
<polygon fill="black" stroke="black" points="52.1256,-312.422 51.1672,-301.871 45.3365,-310.717 52.1256,-312.422"/>
<text text-anchor="middle" x="48.5" y="-412.3" font-family="Times,serif" font-size="14.00">Yes</text>
</g>
<!-- queueFetch -->
<g id="node15" class="node"><title>queueFetch</title>
<ellipse fill="none" stroke="black" cx="122" cy="-468" rx="65.4659" ry="18"/>
<text text-anchor="middle" x="122" y="-464.3" font-family="Times,serif" font-size="14.00">queueFetch</text>
</g>
<!-- isCached&#45;&gt;queueFetch -->
<g id="edge8" class="edge"><title>isCached&#45;&gt;queueFetch</title>
<path fill="none" stroke="black" d="M105.484,-546.626C108.44,-532.732 112.742,-512.514 116.214,-496.194"/>
<polygon fill="black" stroke="black" points="119.696,-496.648 118.353,-486.139 112.849,-495.191 119.696,-496.648"/>
<text text-anchor="middle" x="124" y="-516.3" font-family="Times,serif" font-size="14.00">No</text>
</g>
<!-- fetch -->
<g id="node16" class="node"><title>fetch</title>
<ellipse fill="none" stroke="black" cx="122" cy="-372" rx="34.1708" ry="18"/>
<text text-anchor="middle" x="122" y="-368.3" font-family="Times,serif" font-size="14.00">fetch</text>
</g>
<!-- queueFetch&#45;&gt;fetch -->
<g id="edge9" class="edge"><title>queueFetch&#45;&gt;fetch</title>
<path fill="none" stroke="black" d="M122,-449.759C122,-435.978 122,-416.4 122,-400.465"/>
<polygon fill="black" stroke="black" points="125.5,-400.132 122,-390.132 118.5,-400.132 125.5,-400.132"/>
</g>
<!-- fetch&#45;&gt;return -->
<g id="edge10" class="edge"><title>fetch&#45;&gt;return</title>
<path fill="none" stroke="black" d="M109.586,-354.824C99.7845,-342.053 85.949,-324.024 74.7918,-309.486"/>
<polygon fill="black" stroke="black" points="77.4476,-307.198 68.5828,-301.396 71.8945,-311.46 77.4476,-307.198"/>
<text text-anchor="middle" x="105.5" y="-324.3" font-family="Times,serif" font-size="14.00">Ok</text>
</g>
<!-- fail -->
<g id="node17" class="node"><title>fail</title>
<ellipse fill="none" stroke="black" cx="141" cy="-284" rx="27" ry="18"/>
<text text-anchor="middle" x="141" y="-280.3" font-family="Times,serif" font-size="14.00">fail</text>
</g>
<!-- fetch&#45;&gt;fail -->
<g id="edge11" class="edge"><title>fetch&#45;&gt;fail</title>
<path fill="none" stroke="black" d="M125.754,-354.009C128.408,-341.995 132.021,-325.641 135.064,-311.869"/>
<polygon fill="black" stroke="black" points="138.514,-312.475 137.254,-301.956 131.679,-310.965 138.514,-312.475"/>
<text text-anchor="middle" x="154" y="-324.3" font-family="Times,serif" font-size="14.00">Error</text>
</g>
<!-- recache:full&#45;index/&#45;&gt;foreach:indexYear -->
<g id="edge14" class="edge"><title>recache:full&#45;index/&#45;&gt;foreach:indexYear</title>
<path fill="none" stroke="black" d="M378,-743.686C378,-727.455 378,-702.702 378,-682.305"/>
<polygon fill="black" stroke="black" points="381.5,-682.104 378,-672.104 374.5,-682.104 381.5,-682.104"/>
<text text-anchor="middle" x="388.5" y="-714.3" font-family="Times,serif" font-size="14.00">Ok</text>
</g>
<!-- recache:full&#45;index/&#45;&gt;recache -->
<g id="edge13" class="edge"><title>recache:full&#45;index/&#45;&gt;recache</title>
<path fill="none" stroke="black" d="M330.827,-741.516C279.957,-720.504 199.467,-687.258 148.759,-666.313"/>
<polygon fill="black" stroke="black" points="329.623,-744.805 340.202,-745.388 332.296,-738.335 329.623,-744.805"/>
<polygon fill="black" stroke="black" points="149.92,-663.006 139.341,-662.424 147.248,-669.476 149.92,-663.006"/>
</g>
<!-- retryOnce -->
<g id="node20" class="node"><title>retryOnce</title>
<ellipse fill="none" stroke="black" cx="552" cy="-284" rx="57.2688" ry="18"/>
<text text-anchor="middle" x="552" y="-280.3" font-family="Times,serif" font-size="14.00">retryOnce</text>
</g>
<!-- recache:full&#45;index/&#45;&gt;retryOnce -->
<g id="edge15" class="edge"><title>recache:full&#45;index/&#45;&gt;retryOnce</title>
<path fill="none" stroke="black" stroke-dasharray="5,2" d="M428.899,-746.693C452.767,-737.544 479.697,-723.298 497,-702 587.335,-590.806 559.854,-532.11 578,-390 580.027,-374.129 580.867,-369.741 578,-354 575.357,-339.491 569.828,-324.067 564.545,-311.49"/>
<polygon fill="black" stroke="black" points="567.642,-309.838 560.421,-302.086 561.231,-312.65 567.642,-309.838"/>
<text text-anchor="middle" x="588" y="-516.3" font-family="Times,serif" font-size="14.00">Error</text>
</g>
<!-- recache:full&#45;index/YEAR&#45;&gt;foreach:quarter -->
<g id="edge18" class="edge"><title>recache:full&#45;index/YEAR&#45;&gt;foreach:quarter</title>
<path fill="none" stroke="black" d="M378,-545.759C378,-534.271 378,-518.753 378,-504.676"/>
<polygon fill="black" stroke="black" points="381.5,-504.283 378,-494.283 374.5,-504.283 381.5,-504.283"/>
<text text-anchor="middle" x="388.5" y="-516.3" font-family="Times,serif" font-size="14.00">Ok</text>
</g>
<!-- recache:full&#45;index/YEAR&#45;&gt;recache -->
<g id="edge17" class="edge"><title>recache:full&#45;index/YEAR&#45;&gt;recache</title>
<path fill="none" stroke="black" d="M315.258,-583.186C264.693,-597.843 194.707,-618.128 148.91,-631.403"/>
<polygon fill="black" stroke="black" points="316.469,-586.479 325.1,-580.333 314.52,-579.756 316.469,-586.479"/>
<polygon fill="black" stroke="black" points="147.853,-628.065 139.223,-634.211 149.802,-634.788 147.853,-628.065"/>
</g>
<!-- recache:full&#45;index/YEAR&#45;&gt;retryOnce -->
<g id="edge19" class="edge"><title>recache:full&#45;index/YEAR&#45;&gt;retryOnce</title>
<path fill="none" stroke="black" stroke-dasharray="5,2" d="M421.345,-547.132C444.71,-536.093 471.46,-518.843 485,-494 496.06,-473.707 493.213,-463.602 485,-442 481.196,-431.995 472.804,-434.005 469,-424 466.473,-417.353 464.48,-413.49 469,-408 495.482,-375.835 534.518,-422.165 561,-390 571.17,-377.648 568.983,-367.866 561,-354 553.051,-340.193 537.949,-349.807 530,-336 525.336,-327.899 527.359,-318.62 531.673,-310.218"/>
<polygon fill="black" stroke="black" points="534.757,-311.885 537.045,-301.541 528.805,-308.2 534.757,-311.885"/>
<text text-anchor="middle" x="489" y="-412.3" font-family="Times,serif" font-size="14.00">Error</text>
</g>
<!-- retryOnce&#45;&gt;error -->
<g id="edge26" class="edge"><title>retryOnce&#45;&gt;error</title>
<path fill="none" stroke="black" stroke-dasharray="5,2" d="M544.134,-266.016C538.618,-254.108 531.048,-237.762 524.261,-223.108"/>
<polygon fill="black" stroke="black" points="527.322,-221.39 519.943,-213.787 520.97,-224.332 527.322,-221.39"/>
<text text-anchor="middle" x="555" y="-236.3" font-family="Times,serif" font-size="14.00">Error</text>
</g>
<!-- recache:full&#45;index/YEAR/QUARTER&#45;&gt;awaitRequests -->
<g id="edge22" class="edge"><title>recache:full&#45;index/YEAR/QUARTER&#45;&gt;awaitRequests</title>
<path fill="none" stroke="black" d="M378,-353.597C378,-340.69 378,-322.946 378,-308.738"/>
<polygon fill="black" stroke="black" points="381.5,-308.701 378,-298.701 374.5,-308.701 381.5,-308.701"/>
</g>
<!-- recache:full&#45;index/YEAR/QUARTER&#45;&gt;recache -->
<g id="edge21" class="edge"><title>recache:full&#45;index/YEAR/QUARTER&#45;&gt;recache</title>
<path fill="none" stroke="black" d="M334.594,-394.518C313.401,-406.481 288.543,-422.828 270,-442 219.712,-493.995 235.457,-528.294 187,-582 173.192,-597.304 155.156,-611.297 139.253,-622.187"/>
<polygon fill="black" stroke="black" points="336.347,-397.549 343.423,-389.664 332.974,-391.415 336.347,-397.549"/>
<polygon fill="black" stroke="black" points="137.055,-619.446 130.677,-627.906 140.939,-625.269 137.055,-619.446"/>
</g>
<!-- recache:full&#45;index/YEAR/QUARTER&#45;&gt;retryOnce -->
<g id="edge23" class="edge"><title>recache:full&#45;index/YEAR/QUARTER&#45;&gt;retryOnce</title>
<path fill="none" stroke="black" stroke-dasharray="5,2" d="M401.39,-353.95C416.701,-343.288 437.429,-329.773 457,-320 471.577,-312.721 488.053,-306.125 503.141,-300.671"/>
<polygon fill="black" stroke="black" points="504.556,-303.883 512.822,-297.256 502.228,-297.282 504.556,-303.883"/>
<text text-anchor="middle" x="477" y="-324.3" font-family="Times,serif" font-size="14.00">Error</text>
</g>
</g>
</svg>
